<svg width="169" height="87" viewBox="0 0 169 87" fill="none" xmlns="http://www.w3.org/2000/svg">
<path d="M2 71.2551C12.5689 71.2551 15.5058 69.3252 24.4301 63.0689C46.0601 47.9057 72.0381 37.7417 95.8955 26.5586C112.474 18.7874 128.227 12.1534 143.457 2" stroke="black" stroke-width="3" stroke-linecap="round"/>
<path d="M15.2616 83.0432C18.5853 83.0432 21.1847 84.1185 24.3483 84.4349C34.9268 85.4927 45.634 80.9696 55.0465 76.8217C72.0626 69.3231 88.4086 60.805 106.21 55.2102C116.701 51.9132 125.939 47.8346 135.189 41.8667C145.61 35.1434 167.034 23.7798 167.034 9.36757" stroke="black" stroke-width="3" stroke-linecap="round"/>
<path d="M35.8908 56.52C42.0145 57.2404 42.1744 65.3216 44.4044 69.7816C46.0142 73.0012 49.3492 74.949 52.0995 77.1492" stroke="black" stroke-width="3" stroke-linecap="round"/>
<path d="M72.7286 38.8378C80.4878 38.8378 88.9373 46.9362 88.9373 55.0465" stroke="black" stroke-width="3" stroke-linecap="round"/>
<path d="M119.881 16.7351C126.935 16.7351 126.363 23.7416 131.669 26.3948C136.498 28.8091 139.603 34.7007 144.931 37.3643" stroke="black" stroke-width="3" stroke-linecap="round"/>
</svg>
