<svg width="1511" height="890" viewBox="0 0 1511 890" fill="none" xmlns="http://www.w3.org/2000/svg">
<path d="M701.643 1.16567C345.585 16.7651 58.6448 187.025 24.6847 403.017C21.6926 422.216 20.4957 450.215 22.1414 465.681L23.6374 479.014L11.8187 494.88C5.23614 503.546 0 511.546 0 512.346C0 516.079 3.7401 517.013 13.614 515.546C18.8501 514.879 24.3854 513.679 25.7319 512.879C27.2279 512.213 28.5744 511.679 29.0232 511.679C29.3224 511.679 30.6688 516.079 32.1649 521.279C47.5741 577.944 86.9199 638.341 141.077 688.473C334.963 868.333 714.209 938.463 1040.79 855.133C1133.4 831.401 1230.04 790.602 1291.08 749.404L1297.66 744.871L1305.29 758.603C1311.58 770.07 1313.52 772.47 1316.96 773.27C1319.21 773.67 1330.28 773.536 1341.65 772.87C1358.1 771.803 1362.59 771.136 1364.09 769.27C1365.58 767.67 1366.03 762.737 1365.59 750.87C1365.14 735.138 1364.99 734.604 1359.3 724.871C1356.16 719.405 1352.42 713.538 1350.92 711.672L1348.23 708.339L1367.08 691.006C1390.27 669.807 1408.37 649.808 1425.28 627.275C1438.29 609.809 1459.69 574.744 1462.38 566.344C1463.87 562.078 1464.77 561.411 1475.69 558.078C1491.7 553.145 1511 544.878 1511 543.012C1511 542.212 1509.2 540.078 1507.11 538.212C1504.87 536.479 1498.28 529.812 1492.3 523.546C1481.38 512.213 1481.23 512.079 1482.58 506.88C1489.01 482.481 1491.25 433.949 1487.21 407.683C1481.38 369.152 1469.56 335.42 1449.81 300.354C1392.96 199.958 1278.07 114.895 1126.22 60.8967C999.354 15.6985 849.751 -5.36741 701.643 1.16567ZM809.357 61.0301C1006.54 71.8297 1179.93 133.427 1289.74 231.69C1351.82 287.421 1388.77 352.086 1397.3 420.35C1399.55 438.616 1399.84 438.082 1391.77 431.816C1387.73 428.749 1374.11 418.616 1361.4 409.15C1348.68 399.684 1332.97 388.084 1326.69 383.418C1311.43 372.085 1284.8 355.152 1267.3 345.686C1233.34 327.287 1178.88 304.087 1148.36 295.021C1137.59 291.821 1122.03 287.021 1113.8 284.488C1091.06 277.422 1073.11 273.422 1044.24 269.022C985.441 260.222 956.418 259.422 911.088 265.822C896.128 267.822 840.774 280.755 830.9 284.488C827.759 285.688 815.342 290.221 803.373 294.354C779.736 302.754 755.949 311.687 736.052 319.687C710.619 329.82 676.958 335.686 643.297 335.686C618.762 335.686 608.14 334.486 590.487 329.553C568.944 323.553 519.724 303.687 492.496 290.088C463.922 275.689 457.639 273.155 433.851 265.956C411.411 259.156 385.829 255.556 354.711 254.756C313.42 253.556 283.051 257.689 241.61 269.689C207.351 279.822 168.454 296.754 138.683 314.62C133.896 317.554 129.707 319.687 129.258 319.42C128.959 319.02 133.896 311.687 140.329 302.887C178.029 251.689 233.083 205.958 300.405 170.093C397.049 118.361 494.591 86.3625 603.652 70.4964C669.178 61.0301 744.28 57.5636 809.357 61.0301ZM357.105 281.288C356.805 282.222 347.53 293.555 336.609 306.354L316.861 329.687L298.759 329.153C288.736 328.886 280.358 328.62 280.208 328.487C279.909 328.22 283.948 317.554 288.885 304.621L298.011 281.155L303.546 280.622C306.539 280.355 320.003 280.088 333.467 279.955C352.467 279.688 357.703 280.088 357.105 281.288ZM249.839 292.888C249.839 294.088 242.807 328.087 241.61 332.62C241.162 334.353 239.666 335.686 238.17 335.686C236.823 335.686 229.941 337.553 222.91 339.686C215.879 341.819 210.044 343.686 209.894 343.686C209.595 343.686 209.446 335.02 209.446 324.487V305.287L215.13 303.154C246.996 291.288 249.839 290.488 249.839 292.888ZM427.867 295.021C440.135 298.754 459.883 307.154 462.127 309.554C463.174 310.621 455.694 318.22 435.796 335.953L407.97 360.885L391.962 353.019C383.136 348.619 373.86 344.353 371.167 343.553C368.624 342.753 366.53 341.553 366.829 340.886C368.175 337.419 412.458 291.688 414.553 291.688C415.749 291.688 421.883 293.155 427.867 295.021ZM929.041 302.221C929.041 303.021 927.694 311.554 926.049 321.287C924.552 331.02 920.513 358.219 917.072 381.684C908.994 439.016 910.639 433.016 903.608 433.016C900.466 433.016 883.411 434.882 865.908 437.149C848.404 439.416 832.396 441.416 830.452 441.549C827.16 441.682 825.066 437.816 802.476 390.484C789.011 362.352 777.941 339.153 777.941 338.886C777.941 337.02 826.113 320.753 851.845 313.82C883.262 305.287 929.041 298.488 929.041 302.221ZM1078.64 316.887C1094.5 321.553 1151.95 341.153 1163.92 345.819C1166.76 347.019 1180.97 353.686 1195.34 360.619C1231.69 378.351 1231.84 378.485 1233.34 379.685C1234.53 380.751 1115 490.347 1111.56 491.414C1110.81 491.68 1106.32 489.547 1101.53 486.614C1096.75 483.681 1087.17 478.881 1080.14 475.681C1073.11 472.614 1062.34 467.415 1056.2 464.348C1049.62 461.015 1034.96 455.682 1021.05 451.682C1007.88 447.815 996.811 444.482 996.662 444.215C996.362 444.082 1006.83 422.083 1020 395.417C1041.24 352.219 1050.67 332.886 1058.15 316.62C1059.5 313.954 1060.84 311.687 1060.99 311.687C1061.29 311.687 1069.22 313.954 1078.64 316.887ZM181.769 344.619C180.871 354.886 180.273 357.019 178.029 357.685C176.533 358.085 169.801 361.419 162.919 365.018C151.25 371.418 148.108 372.618 148.108 370.885C148.108 370.485 146.462 363.418 144.368 355.285L140.628 340.353L144.517 337.686C146.612 336.22 155.887 331.02 165.163 326.22L181.769 317.42L182.218 324.887C182.517 329.02 182.367 337.819 181.769 344.619ZM555.18 356.885C562.96 360.485 573.582 364.752 578.967 366.485C584.353 368.085 589.14 369.818 589.739 370.352C590.487 370.752 584.203 382.218 575.826 395.684C567.597 409.15 555.629 429.149 549.346 439.949C543.062 450.748 537.228 459.681 536.629 459.681C535.283 459.681 521.519 448.482 495.937 426.483C486.063 417.95 474.245 408.083 469.756 404.617C465.268 401.15 462.276 397.951 463.174 397.551C466.166 396.484 536.33 354.219 538.574 352.219C539.771 351.152 540.818 350.352 540.968 350.352C540.968 350.352 547.401 353.286 555.18 356.885ZM122.675 355.285C122.675 355.952 123.722 361.685 124.919 368.352C126.116 374.885 127.163 381.684 127.163 383.151C127.163 385.151 121.628 390.484 109.66 400.217C100.085 407.95 92.0064 414.217 91.8568 413.95C91.1088 413.283 97.093 388.351 100.384 378.885C102.928 371.285 105.022 368.352 111.904 361.952C119.833 354.752 122.675 353.019 122.675 355.285ZM329.877 358.219C355.16 364.218 384.033 378.885 417.395 402.75C441.631 420.083 450.458 427.549 474.394 449.815C490.701 465.015 525.858 492.48 539.771 500.88C558.621 512.213 587.644 523.412 609.636 527.679C637.911 533.279 675.013 530.479 705.383 520.213C711.217 518.346 727.674 513.279 742.036 509.146C756.398 504.88 769.563 500.747 771.208 499.947C778.539 496.08 792.153 492.747 831.948 484.614C890.144 472.614 890.592 472.614 914.08 473.548C963.898 475.814 1008.18 485.414 1045.88 502.347C1056.05 507.013 1079.84 520.613 1098.09 532.079C1135.94 556.211 1190.85 603.143 1222.86 638.741C1239.92 657.807 1261.16 684.073 1261.01 686.34C1261.01 690.606 1217.18 719.138 1182.02 737.938C1034.96 816.735 832.845 851.267 633.573 831.534C453.3 813.801 295.468 753.004 194.485 662.474C172.643 642.875 159.927 629.142 143.47 607.143C108.612 561.011 88.2663 505.28 88.2663 456.215V443.682L100.683 432.083C113.998 419.55 135.392 404.75 154.541 394.484C161.273 390.884 172.493 384.884 179.375 381.151C200.619 369.685 241.012 357.685 265.547 355.685C287.539 353.819 316.113 355.019 329.877 358.219ZM736.5 412.75C747.87 439.682 757.594 462.881 758.043 464.348C758.642 466.748 756.547 467.948 743.232 473.281C718.249 483.281 683.69 495.147 673.218 497.413C667.832 498.48 656.761 499.947 648.683 500.347L633.872 501.28L634.919 493.547C637.462 474.348 643.447 422.216 645.541 400.35C646.888 387.284 648.084 376.351 648.234 376.351C648.384 376.218 655.565 375.151 664.242 373.951C672.919 372.751 687.729 369.818 697.154 367.285C706.58 364.885 714.658 363.152 715.107 363.418C715.406 363.685 725.13 385.818 736.5 412.75ZM1379.35 485.814C1395.36 500.613 1394.91 497.68 1386.23 524.612C1377.1 552.611 1362.14 580.877 1341.5 608.342C1332.22 620.875 1313.37 642.208 1307.24 647.274L1303.65 650.341L1289.29 633.275C1281.36 623.942 1263.7 605.943 1249.94 593.276C1236.18 580.61 1225.11 570.077 1225.41 569.811C1241.41 559.011 1331.62 496.08 1344.94 486.614C1355.26 479.147 1364.09 473.148 1364.54 473.014C1364.99 473.014 1371.72 478.747 1379.35 485.814Z" fill="#5D74B0"/>
</svg>
